<?xml version="1.0" encoding="utf-8"?>
<!-- Generator: Adobe Illustrator 16.0.0, SVG Export Plug-In . SVG Version: 6.00 Build 0)  -->
<!DOCTYPE svg PUBLIC "-//W3C//DTD SVG 1.1//EN" "http://www.w3.org/Graphics/SVG/1.1/DTD/svg11.dtd">
<svg version="1.1" id="Layer_1" xmlns="http://www.w3.org/2000/svg" xmlns:xlink="http://www.w3.org/1999/xlink" x="0px" y="0px"
	 width="372px" height="366px" viewBox="0 0 372 366" enable-background="new 0 0 372 366" xml:space="preserve">
<g id="workspace">
</g>
<path fill="#FCFCFC" d="M185.646,0.429c-102.79,0-186.13,81.69-186.13,182.47s83.34,182.47,186.13,182.47
	c48.051,0,91.83-17.85,124.851-47.15c33.75-29.939,56.25-71.85,60.529-118.9c0.011-0.049,0.021-0.09,0.021-0.129
	c0.35-3.961,0.58-7.961,0.68-11.98c0.03-1.43,0.05-2.87,0.05-4.31C371.776,82.119,288.437,0.429,185.646,0.429z M281.057,273.629
	c-23.24,8.9-33.63,0.891-39.96-6.061l-4.54-6.689l9.859-5.689l23.291-12.041c15.1-7.799,21.06-26.539,13.25-41.64l-29.391-56.84
	l10.67-5.22l1.381-0.67c6.08-3.57,7.31-12.75,2.75-20.5c-4.551-7.75-13.16-11.14-19.23-7.57l-37.7,19.75l-0.03,0.01
	c-0.01-0.03-0.029-0.06-0.05-0.1c-4.31-8.29-29.43-56.56-29.52-56.73c-3.13-6.05-10.15-8.64-15.66-5.78
	c-5.52,2.86-7.45,10.08-4.31,16.13c0.5,0.97,25.59,48.52,29.85,56.61c0.01,0.02,0.02,0.03,0.02,0.04l-13,6.73l-34.78,18.12
	c-0.02-0.04-0.04-0.07-0.06-0.11c-5.55-10.47-29.97-56.57-30.06-56.74c-3.13-6.05-10.15-8.64-15.66-5.78
	c-5.52,2.86-7.45,10.08-4.31,16.13c0.49,0.94,24.78,46.19,30.35,56.57c0.04,0.06,0.07,0.12,0.1,0.17l-5.77,3.01l-35.49,18.49
	l-0.05,0.03l-0.87,0.45c-6.07,3.57-7.31,12.74-2.75,20.49c4.37,7.439,12.47,10.859,18.48,7.979l0.01-0.01l1.03-0.569l10.18-5.73
	l29.2,56.46c7.81,15.09,26.54,21.06,41.64,13.25l25.64-13.261l7.74-4.189l4.471,7.01c1.569,3.49,25.01,33.9,70.279,16.49
	c7.17-2.76,13.19-6.43,18.271-10.62c-29.091,32.771-71.921,53.479-119.721,53.479c-87.65,0-158.69-69.659-158.69-155.589
	s70.92-155.58,158.57-155.58c87.6,0,158.57,69.57,158.57,155.44C342.167,212.949,332.307,253.988,281.057,273.629z"/>
</svg>
