<?xml version="1.0" encoding="iso-8859-1"?>
<!-- Generator: Adobe Illustrator 19.0.0, SVG Export Plug-In . SVG Version: 6.00 Build 0)  -->
<svg version="1.1" id="Logo" xmlns="http://www.w3.org/2000/svg" xmlns:xlink="http://www.w3.org/1999/xlink" x="0px" y="0px"
	 viewBox="0 0 802 610" style="enable-background:new 0 0 802 610;" xml:space="preserve">
<path d="M401.744,31.3c-102.79,0-186.13,81.69-186.13,182.47s83.34,182.47,186.13,182.47c48.05,0,91.83-17.85,124.85-47.15
	c33.75-29.94,56.25-71.85,60.53-118.9c0.01-0.05,0.02-0.09,0.02-0.13c0.35-3.96,0.58-7.96,0.68-11.98c0.03-1.43,0.05-2.87,0.05-4.31
	C587.874,112.99,504.534,31.3,401.744,31.3z M497.154,304.5c-23.24,8.9-33.63,0.89-39.96-6.06l-4.54-6.69l9.86-5.69l23.29-12.04
	c15.1-7.8,21.06-26.54,13.25-41.64l-29.39-56.84l10.67-5.22l1.38-0.67c6.08-3.57,7.31-12.75,2.75-20.5
	c-4.55-7.75-13.16-11.14-19.23-7.57l-37.7,19.75l-0.03,0.01c-0.01-0.03-0.03-0.06-0.05-0.1c-4.31-8.29-29.43-56.56-29.52-56.73
	c-3.13-6.05-10.15-8.64-15.66-5.78c-5.52,2.86-7.45,10.08-4.31,16.13c0.5,0.97,25.59,48.52,29.85,56.61
	c0.01,0.02,0.02,0.03,0.02,0.04l-13,6.73l-34.78,18.12c-0.02-0.04-0.04-0.07-0.06-0.11c-5.55-10.47-29.97-56.57-30.06-56.74
	c-3.13-6.05-10.15-8.64-15.66-5.78c-5.52,2.86-7.45,10.08-4.31,16.13c0.49,0.94,24.78,46.19,30.35,56.57
	c0.04,0.06,0.07,0.12,0.1,0.17l-5.77,3.01l-35.49,18.49l-0.05,0.03l-0.87,0.45c-6.07,3.57-7.31,12.74-2.75,20.49
	c4.37,7.44,12.47,10.86,18.48,7.98l0.01-0.01l1.03-0.57l10.18-5.73l29.2,56.46c7.81,15.09,26.54,21.06,41.64,13.25l25.64-13.26
	l7.74-4.19l4.47,7.01c1.57,3.49,25.01,33.9,70.28,16.49c7.17-2.76,13.19-6.43,18.27-10.62c-29.09,32.77-71.92,53.48-119.72,53.48
	c-87.65,0-158.69-69.66-158.69-155.59s70.92-155.58,158.57-155.58c87.6,0,158.57,69.57,158.57,155.44
	C558.264,243.82,548.404,284.86,497.154,304.5z"/>
</svg>
